<?xml version="1.0" encoding="UTF-8"?>
<svg width="900" height="700" viewBox="0 0 900 700" xmlns="http://www.w3.org/2000/svg">
  <rect width="100%" height="100%" fill="#f8f8f8"/>

  <g transform="translate(140,90)">
    <path d="M120 210 L180 120 L300 80 L450 95 L560 70 L620 130 L610 250
             L640 340 L560 390 L430 430 L350 480 L220 450 L120 390
             L70 300 Z"
          fill="#ffffff"
          stroke="#222"
          stroke-width="10"
          stroke-linejoin="round"/>

    <path d="M120 210 L300 80 L450 95 L620 130 L610 250 L640 340 L560 390
             L430 430 L350 480 L220 450 L120 390 L70 300 Z"
          fill="#007a4d"/>

    <polygon points="70,300 120,210 170,250 120,330" fill="#000000"/>
    <polygon points="120,210 170,250 300,180 260,140" fill="#ffb612"/>

    <path d="M170 250 L640 340 L560 390 L120 330 Z" fill="#002395"/>

    <path d="M145 238 L610 145" stroke="#ffffff" stroke-width="28"/>
    <path d="M145 322 L585 365" stroke="#ffffff" stroke-width="28"/>

    <path d="M420 95 L560 70 L620 130 L610 250 L500 235 L430 180 Z"
          fill="#de3831"/>
  </g>

  <text x="450" y="620"
        text-anchor="middle"
        font-family="Georgia, serif"
        font-size="48"
        letter-spacing="12"
        fill="#444">
    SOUTH AFRICA
  </text>
</svg>
